# xmcd
# Copyright (C) 1995-1998 Ti Kan
#
# Track frame offsets:
#       150
#       9985
#       18900
#       33770
#       49720
#       69153
#       83535
#       102407
#       121056
#       136906
#       156351
#       175398
#       192228
#       214436
#       231347
#
# Disc length: 3405 seconds
#
# Revision: 0
# Processed by: cddbd v1.5.2PL0 Copyright (c) Steve Scherf et al.
# Submitted via: CD-Import v1.0
#
DISCID=bc0d4b0f
DTITLE=Amadou and Mariam - Dimanche A Bamako
DYEAR=2004
DGENRE=
TTITLE0=M' Bife
TTITLE1=M' Bife Balafon
TTITLE2=Coulibaly
TTITLE3=La Realite
TTITLE4=Senegal Fast Food
TTITLE5=Artistiya
TTITLE6=La Fete Au Village
TTITLE7=Camions Sauvages
TTITLE8=Beaux Dimanches
TTITLE9=La Paix
TTITLE10=Djanfa
TTITLE11=Taxi Bamako
TTITLE12=Politic Amagni
TTITLE13=Gnidjougouya
TTITLE14=M' Bife Blues
EXTD=
EXTT0=
EXTT1=
EXTT2=
EXTT3=
EXTT4=
EXTT5=
EXTT6=
EXTT7=
EXTT8=
EXTT9=
EXTT10=
EXTT11=
EXTT12=
EXTT13=
EXTT14=
PLAYORDER=
